<svg width="31" height="32" viewBox="0 0 31 32" fill="none" xmlns="http://www.w3.org/2000/svg">
<g clip-path="url(#clip0_200_2)">
<path fill-rule="evenodd" clip-rule="evenodd" d="M31.3946 16C31.3946 15.7348 31.2844 15.4804 31.0881 15.2929C30.8919 15.1054 30.6257 15 30.3481 15H5.66565L12.2523 8.708C12.3496 8.61502 12.4267 8.50464 12.4794 8.38316C12.532 8.26169 12.5591 8.13148 12.5591 8C12.5591 7.86851 12.532 7.73831 12.4794 7.61683C12.4267 7.49535 12.3496 7.38497 12.2523 7.292C12.155 7.19902 12.0394 7.12527 11.9123 7.07495C11.7852 7.02463 11.6489 6.99873 11.5113 6.99873C11.3737 6.99873 11.2375 7.02463 11.1104 7.07495C10.9832 7.12527 10.8677 7.19902 10.7704 7.292L2.39851 15.292C2.30105 15.3849 2.22373 15.4952 2.17098 15.6167C2.11822 15.7382 2.09106 15.8685 2.09106 16C2.09106 16.1315 2.11822 16.2618 2.17098 16.3833C2.22373 16.5048 2.30105 16.6151 2.39851 16.708L10.7704 24.708C10.8677 24.801 10.9832 24.8747 11.1104 24.925C11.2375 24.9754 11.3737 25.0013 11.5113 25.0013C11.6489 25.0013 11.7852 24.9754 11.9123 24.925C12.0394 24.8747 12.155 24.801 12.2523 24.708C12.3496 24.615 12.4267 24.5046 12.4794 24.3832C12.532 24.2617 12.5591 24.1315 12.5591 24C12.5591 23.8685 12.532 23.7383 12.4794 23.6168C12.4267 23.4954 12.3496 23.385 12.2523 23.292L5.66565 17H30.3481C30.6257 17 30.8919 16.8946 31.0881 16.7071C31.2844 16.5196 31.3946 16.2652 31.3946 16Z" fill="black"/>
</g>
<defs>
<clipPath id="clip0_200_2">
<rect width="31" height="32" fill="white"/>
</clipPath>
</defs>
</svg>
