<svg width="20" height="20" viewBox="0 0 20 20" fill="none" xmlns="http://www.w3.org/2000/svg">
<path d="M17.3899 16.1394C18.3773 14.9514 19.064 13.5432 19.3919 12.0337C19.7199 10.5243 19.6795 8.95806 19.2742 7.46753C18.8688 5.977 18.1104 4.60603 17.0631 3.47059C16.0159 2.33514 14.7105 1.46864 13.2576 0.944372C11.8046 0.420105 10.2467 0.2535 8.71573 0.45865C7.18474 0.6638 5.72569 1.23467 4.46199 2.12297C3.1983 3.01126 2.16714 4.19086 1.45575 5.56196C0.744351 6.93306 0.373651 8.45533 0.375004 9.99999C0.375523 12.2455 1.16683 14.4191 2.61007 16.1394L2.59632 16.1511C2.64444 16.2088 2.69944 16.2583 2.74894 16.3154C2.81082 16.3862 2.8775 16.4529 2.94144 16.5216C3.13394 16.7306 3.33194 16.9314 3.53957 17.1197C3.60282 17.1775 3.66813 17.2311 3.73207 17.2861C3.95207 17.4759 4.17825 17.656 4.41269 17.8237C4.44294 17.8444 4.47044 17.8712 4.50069 17.8925V17.8842C6.11089 19.0174 8.03176 19.6255 10.0007 19.6255C11.9696 19.6255 13.8905 19.0174 15.5007 17.8842V17.8925C15.5309 17.8712 15.5578 17.8444 15.5887 17.8237C15.8224 17.6553 16.0493 17.4759 16.2693 17.2861C16.3333 17.2311 16.3986 17.1768 16.4618 17.1197C16.6694 16.9307 16.8674 16.7306 17.0599 16.5216C17.1239 16.4529 17.1899 16.3862 17.2524 16.3154C17.3013 16.2583 17.3569 16.2088 17.4051 16.1504L17.3899 16.1394ZM10 4.49999C10.6119 4.49999 11.21 4.68144 11.7188 5.02139C12.2276 5.36133 12.6241 5.84451 12.8583 6.40982C13.0924 6.97513 13.1537 7.59718 13.0343 8.19731C12.9149 8.79743 12.6203 9.34869 12.1876 9.78136C11.7549 10.214 11.2037 10.5087 10.6036 10.628C10.0034 10.7474 9.38139 10.6862 8.81608 10.452C8.25077 10.2178 7.76759 9.8213 7.42765 9.31254C7.0877 8.80377 6.90625 8.20563 6.90625 7.59374C6.90625 6.77323 7.2322 5.98632 7.81239 5.40613C8.39258 4.82594 9.17949 4.49999 10 4.49999V4.49999ZM4.50482 16.1394C4.51674 15.2367 4.88359 14.3749 5.526 13.7406C6.16841 13.1063 7.03472 12.7505 7.9375 12.75H12.0625C12.9653 12.7505 13.8316 13.1063 14.474 13.7406C15.1164 14.3749 15.4833 15.2367 15.4952 16.1394C13.9874 17.4981 12.0297 18.25 10 18.25C7.97033 18.25 6.01261 17.4981 4.50482 16.1394V16.1394Z" fill="#6F6F6F"/>
</svg>
