<svg width="161" height="69" viewBox="0 0 161 69" fill="none" xmlns="http://www.w3.org/2000/svg">
<rect width="160.44" height="69" fill="black"/>
<path d="M49.7031 34.5312C49.4948 34.7292 49.2708 34.9323 49.0312 35.1406C48.7917 35.3385 48.5365 35.5417 48.2656 35.75C48.526 36.3854 48.7812 36.9948 49.0312 37.5781C49.2917 38.151 49.5312 38.6823 49.75 39.1719C49.9792 39.651 50.1927 40.0729 50.3906 40.4375C50.5885 40.8021 50.7656 41.0938 50.9219 41.3125C51.1406 41.6146 51.3854 41.8802 51.6562 42.1094C51.8958 42.3073 52.1719 42.4896 52.4844 42.6562C52.8073 42.8125 53.1615 42.8906 53.5469 42.8906C53.9323 42.8906 54.349 42.7604 54.7969 42.5C54.4219 42.8958 54.0208 43.2865 53.5938 43.6719C53.1771 44.0469 52.7344 44.3854 52.2656 44.6875C51.8073 44.9896 51.3281 45.2344 50.8281 45.4219C50.3385 45.6094 49.8333 45.7031 49.3125 45.7031C48.9167 45.7031 48.5521 45.5833 48.2188 45.3438C47.8854 45.1146 47.5573 44.7031 47.2344 44.1094C47.1198 43.9219 46.9688 43.625 46.7812 43.2188C46.5938 42.8021 46.375 42.3125 46.125 41.75C45.8854 41.1771 45.6198 40.5469 45.3281 39.8594C45.0365 39.1615 44.7344 38.4323 44.4219 37.6719C43.7656 37.8698 43.0521 38.026 42.2812 38.1406C41.5208 38.2552 40.6979 38.3125 39.8125 38.3125H35.2031L33.9219 41.3125C33.849 41.5104 33.7969 41.7135 33.7656 41.9219C33.7448 42.1198 33.7656 42.3021 33.8281 42.4688C33.8906 42.6354 34.0104 42.776 34.1875 42.8906C34.375 42.9948 34.651 43.0469 35.0156 43.0469C35.224 43.0469 35.4583 43.026 35.7188 42.9844C35.9792 42.9427 36.276 42.8802 36.6094 42.7969C36.026 43.349 35.5208 43.8177 35.0938 44.2031C34.6667 44.5885 34.2604 44.901 33.875 45.1406C33.4896 45.3802 33.099 45.5521 32.7031 45.6562C32.3073 45.7708 31.8542 45.8281 31.3438 45.8281C31.0417 45.8281 30.8229 45.7552 30.6875 45.6094C30.5625 45.4635 30.5 45.2604 30.5 45C30.5 44.6667 30.5833 44.2604 30.75 43.7812C30.9271 43.3021 31.1458 42.7708 31.4062 42.1875C31.625 41.6562 32.0521 40.6719 32.6875 39.2344C32.9583 38.6198 33.2865 37.875 33.6719 37C34.0573 36.125 34.5156 35.0938 35.0469 33.9062C35.5781 32.7083 36.1823 31.3333 36.8594 29.7812C37.5469 28.2292 38.3281 26.474 39.2031 24.5156L39.9375 23.9062C39.9375 23.5833 39.9635 23.3021 40.0156 23.0625C40.0677 22.8229 40.1406 22.6146 40.2344 22.4375C40.3385 22.25 40.4583 22.0833 40.5938 21.9375C40.7292 21.7917 40.875 21.651 41.0312 21.5156C41.2188 21.3594 41.4427 21.1771 41.7031 20.9688C42.1406 20.6146 42.7812 20.0833 43.625 19.375C43.5 19.6146 43.4115 19.8854 43.3594 20.1875C43.3177 20.4792 43.2969 20.7708 43.2969 21.0625C43.2969 21.3646 43.3125 21.6562 43.3438 21.9375C43.375 22.2083 43.4115 22.4479 43.4531 22.6562C43.4948 22.9062 43.5521 23.1354 43.625 23.3438C43.7396 23.7188 43.9375 24.3125 44.2188 25.125C44.5 25.9375 44.8333 26.875 45.2188 27.9375C45.6146 28.9896 46.0417 30.1146 46.5 31.3125C46.9583 32.5104 47.4167 33.6823 47.875 34.8281C48.1771 34.7865 48.4427 34.7448 48.6719 34.7031C48.901 34.6615 49.0938 34.6302 49.25 34.6094C49.4271 34.5781 49.5781 34.5521 49.7031 34.5312ZM40.3906 26.8906C39.651 28.5052 38.9531 30.0208 38.2969 31.4375C37.6406 32.8438 37.0156 34.2396 36.4219 35.625C37.8177 35.5938 39.099 35.5469 40.2656 35.4844C41.4323 35.4219 42.4896 35.349 43.4375 35.2656C43.1042 34.4531 42.7812 33.6458 42.4688 32.8438C42.1667 32.0312 41.8802 31.2604 41.6094 30.5312C41.349 29.8021 41.1094 29.125 40.8906 28.5C40.6823 27.875 40.5156 27.3385 40.3906 26.8906ZM80.9688 21.3906C80.8229 21.4635 80.7083 21.5625 80.625 21.6875C80.5521 21.8125 80.4948 21.9375 80.4531 22.0625C80.4115 22.2083 80.3802 22.3646 80.3594 22.5312C80.349 22.6458 80.3333 22.9167 80.3125 23.3438C80.3021 23.7708 80.2812 24.3125 80.25 24.9688C80.2292 25.6146 80.2031 26.3438 80.1719 27.1562C80.151 27.9583 80.125 28.7917 80.0938 29.6562C80.0625 30.5208 80.0312 31.3854 80 32.25C79.9792 33.1146 79.9531 33.9271 79.9219 34.6875C79.901 35.4479 79.8802 36.1302 79.8594 36.7344C79.849 37.3281 79.8385 37.7917 79.8281 38.125C79.8073 38.7917 79.776 39.3385 79.7344 39.7656C79.6927 40.1823 79.6354 40.5312 79.5625 40.8125C79.4896 41.0938 79.401 41.3333 79.2969 41.5312C79.1927 41.7292 79.0781 41.9375 78.9531 42.1562C78.8594 42.3542 78.7188 42.6302 78.5312 42.9844C78.3646 43.2865 78.1354 43.6927 77.8438 44.2031C77.5625 44.7031 77.1979 45.3333 76.75 46.0938C76.5938 45.6354 76.3438 45.1562 76 44.6562C75.6667 44.1562 75.3229 43.6875 74.9688 43.25C74.5521 42.75 74.1094 42.2552 73.6406 41.7656C73.0885 41.2135 72.2292 40.3646 71.0625 39.2188C70.5625 38.7292 69.974 38.1562 69.2969 37.5C68.6198 36.8333 67.8333 36.0625 66.9375 35.1875C66.0417 34.3125 65.0312 33.3229 63.9062 32.2188C62.7812 31.1146 61.526 29.8802 60.1406 28.5156C60.1198 29.7865 60.099 30.9323 60.0781 31.9531C60.0677 32.974 60.0573 33.8906 60.0469 34.7031C60.0365 35.5052 60.026 36.2083 60.0156 36.8125C60.0052 37.4062 60 37.9219 60 38.3594C59.9896 39.3802 59.9844 40.1094 59.9844 40.5469C59.974 40.8802 60.0052 41.1875 60.0781 41.4688C60.151 41.7396 60.2656 41.9792 60.4219 42.1875C60.5781 42.3854 60.7812 42.5417 61.0312 42.6562C61.2812 42.7708 61.5833 42.8281 61.9375 42.8281C62.2917 42.8281 62.6979 42.7708 63.1562 42.6562C63.6146 42.5312 64.1354 42.3333 64.7188 42.0625C64.2083 42.5625 63.724 42.9948 63.2656 43.3594C62.8177 43.724 62.3906 44.0365 61.9844 44.2969C61.5885 44.5573 61.2188 44.7708 60.875 44.9375C60.5417 45.1042 60.2396 45.2344 59.9688 45.3281C59.3229 45.5573 58.7604 45.651 58.2812 45.6094C57.8854 45.526 57.625 45.3698 57.5 45.1406C57.3854 44.9115 57.3281 44.5781 57.3281 44.1406C57.3281 40.8594 57.3854 37.6042 57.5 34.375C57.6146 31.1458 57.6719 27.9271 57.6719 24.7188C57.6719 24.2292 57.6719 23.8229 57.6719 23.5C57.6719 23.1771 57.6615 22.9427 57.6406 22.7969C57.724 22.526 57.8958 22.2188 58.1562 21.875C58.375 21.5729 58.6875 21.2135 59.0938 20.7969C59.5104 20.3802 60.0729 19.9062 60.7812 19.375C60.6979 19.5938 60.6406 19.8073 60.6094 20.0156C60.5781 20.224 60.5625 20.4219 60.5625 20.6094C60.5625 20.9115 60.5885 21.1823 60.6406 21.4219C60.7031 21.651 60.776 21.849 60.8594 22.0156C60.9531 22.2031 61.0573 22.375 61.1719 22.5312C61.526 22.9688 61.9844 23.4792 62.5469 24.0625C63.1094 24.6458 63.7604 25.3073 64.5 26.0469C65.25 26.776 66.0729 27.5833 66.9688 28.4688C67.8646 29.3542 68.8229 30.3229 69.8438 31.375C70.5729 32.0625 71.3438 32.8073 72.1562 33.6094C72.8542 34.2969 73.6458 35.1042 74.5312 36.0312C75.4167 36.9479 76.3281 37.9323 77.2656 38.9844C77.2865 37.0677 77.3021 35.4115 77.3125 34.0156C77.3229 32.6198 77.3281 31.4062 77.3281 30.375C77.3281 29.4271 77.3229 28.6458 77.3125 28.0312C77.3125 27.4062 77.3073 26.9062 77.2969 26.5312C77.2865 26.1042 77.276 25.7656 77.2656 25.5156C77.2656 25.1615 77.2135 24.8646 77.1094 24.625C77.0052 24.3854 76.8698 24.1979 76.7031 24.0625C76.5469 23.9271 76.3646 23.8333 76.1562 23.7812C75.9479 23.7188 75.7396 23.6875 75.5312 23.6875C75.2917 23.6875 75.0625 23.7135 74.8438 23.7656C74.625 23.8177 74.4583 23.8854 74.3438 23.9688C74.7812 23.5938 75.2135 23.2448 75.6406 22.9219C76.0677 22.5885 76.5 22.3021 76.9375 22.0625C77.3854 21.8229 77.849 21.6354 78.3281 21.5C78.8177 21.3542 79.3385 21.2812 79.8906 21.2812C80.2552 21.2812 80.6146 21.3177 80.9688 21.3906Z" fill="#F0F0F0"/>
<path d="M110 15.6667C99.891 15.6667 91.6667 23.891 91.6667 34C91.6667 44.109 99.891 52.3333 110 52.3333C120.109 52.3333 128.333 44.109 128.333 34C128.333 23.891 120.109 15.6667 110 15.6667ZM95.3333 34C95.3333 32.3518 95.6193 30.7697 96.1235 29.2902L99 32.1667L102.667 35.8333V39.5L106.333 43.1667L108.167 45V48.5402C100.945 47.6327 95.3333 41.4653 95.3333 34ZM121.605 42.9338C120.408 41.9695 118.593 41.3333 117.333 41.3333V39.5C117.333 38.5275 116.947 37.5949 116.259 36.9073C115.572 36.2196 114.639 35.8333 113.667 35.8333H106.333V30.3333C107.306 30.3333 108.238 29.947 108.926 29.2594C109.614 28.5717 110 27.6391 110 26.6667V24.8333H111.833C112.806 24.8333 113.738 24.447 114.426 23.7594C115.114 23.0717 115.5 22.1391 115.5 21.1667V20.4132C120.868 22.593 124.667 27.8583 124.667 34C124.666 37.2353 123.589 40.3784 121.605 42.9338V42.9338Z" fill="#F0F0F0"/>
</svg>
