<svg width="30" height="30" viewBox="0 0 30 30" fill="none" xmlns="http://www.w3.org/2000/svg">
<path d="M15 0.833334C7.18848 0.833334 0.833313 7.1885 0.833313 15C0.833313 22.8115 7.18848 29.1667 15 29.1667C22.8115 29.1667 29.1666 22.8115 29.1666 15C29.1666 7.1885 22.8115 0.833334 15 0.833334ZM3.66665 15C3.66665 13.7264 3.88765 12.5038 4.27723 11.3606L6.49998 13.5833L9.33331 16.4167V19.25L12.1666 22.0833L13.5833 23.5V26.2356C8.00306 25.5343 3.66665 20.7687 3.66665 15ZM23.9675 21.9034C23.0424 21.1583 21.6399 20.6667 20.6666 20.6667V19.25C20.6666 18.4986 20.3681 17.7779 19.8368 17.2465C19.3054 16.7152 18.5848 16.4167 17.8333 16.4167H12.1666V12.1667C12.9181 12.1667 13.6388 11.8682 14.1701 11.3368C14.7015 10.8055 15 10.0848 15 9.33333V7.91667H16.4166C17.1681 7.91667 17.8888 7.61816 18.4201 7.0868C18.9515 6.55545 19.25 5.83478 19.25 5.08333V4.50108C23.398 6.1855 26.3333 10.2542 26.3333 15C26.3331 17.5 25.5007 19.9288 23.9675 21.9034V21.9034Z" fill="black"/>
</svg>
