<svg width="17" height="17" viewBox="0 0 17 17" fill="none" xmlns="http://www.w3.org/2000/svg">
<path d="M15.057 7.76476C15.3928 8.20392 15.3928 8.7968 15.057 9.23526C13.9995 10.6158 11.4622 13.4583 8.49999 13.4583C5.53774 13.4583 3.00049 10.6158 1.94295 9.23526C1.77959 9.02497 1.69092 8.76628 1.69092 8.50001C1.69092 8.23373 1.77959 7.97504 1.94295 7.76476C3.00049 6.38421 5.53774 3.54167 8.49999 3.54167C11.4622 3.54167 13.9995 6.38421 15.057 7.76476V7.76476Z" stroke="#6F6F6F" stroke-width="2" stroke-linecap="round" stroke-linejoin="round"/>
<path d="M8.5 10.625C9.6736 10.625 10.625 9.6736 10.625 8.5C10.625 7.32639 9.6736 6.375 8.5 6.375C7.32639 6.375 6.375 7.32639 6.375 8.5C6.375 9.6736 7.32639 10.625 8.5 10.625Z" stroke="#6F6F6F" stroke-width="2" stroke-linecap="round" stroke-linejoin="round"/>
</svg>
